<svg xmlns="http://www.w3.org/2000/svg" version="1.1" x="0px" y="0px" viewBox="1678 -1021.6 2911.2 1069.6" xml:space="preserve"><style type="text/css">
	.st0{fill:#FFFFFF;}
	.st1{fill:#AFCA0B;}
</style><path class="st0" d="M2011.2-197.6c-37.6 71.7-117.8 89.4-192.3 89.4 -48.3 0-88.7-6.4-133.4-23.4l-5.7-6.4c2.8-38.3 4.2-76.7 4.9-115l6.4-2.1c31.2 30.5 79.5 41.8 122.1 41.8 27.6 0 67.4-11.4 67.4-45.4 0-29.1-26.3-41.2-49.7-50.4l-35.5-14.2c-70.2-28.4-116.4-66.7-116.4-149 0-114.3 83.7-159 188.8-159 49 0 90.1 8.5 134.1 28.4l2.9 4.2c-2.1 36.9-4.3 73.1-6.4 110l-5.6 3.5c-34.1-27-66-44-110.7-44 -26.3 0-52.5 13.5-52.5 42.6 0 27.7 24.8 37.6 46.8 46.8 56.1 24.1 120.6 44 144.1 105.7 7.1 19.1 10.6 36.9 10.6 57.5C2031.1-249.4 2024-221.7 2011.2-197.6"/><path class="st0" d="M2474.6-357.3c-50.4 79.5-146.2 78.1-229.9 78.1 -0.7 19.8-0.7 39-0.7 58.9 0 32.6 0.7 64.6 2.1 97.2l-4.3 4.3c-15.6 0-32-0.7-47.6-0.7 -32 0-64.6 1.4-96.5 2.8l-5-3.6c2.1-103.6 4.3-207.2 4.3-310.8 0-61.7 0-123.5-2.8-185.2l4.9-3.6c65.3-0.7 131.3-2.1 196.6-2.1 13.5 0 27.7 0 41.2 0.7 101.5 5.7 165.3 53.2 165.3 161.8C2502.2-423.3 2494.4-388.5 2474.6-357.3M2278.7-519.8h-33.4v135.5h27c46.1 0 75.9-27 75.9-74.5C2348.3-502.7 2318.5-519.8 2278.7-519.8"/><path class="st0" d="M2964.2-122.4c-49.7 2.1-100 3.6-149.7 7.1l-7.8-6.3c-12.1-29.9-24.2-60.4-38.3-89.5l-44.7-93 -23.4 0.7c0 60.4 0.7 120 5 180.3l-4.3 4.3c-48.9 0-97.2 0.7-146.2 2.1l-3.5-4.3c2.1-80.2 3.5-159.7 3.5-239.9 0-85.1 0.7-171-7.8-255.4l3.5-3.6c67.4-0.7 134.1-2.1 201.5-2.1 34.8 0 91.5 2.8 122.7 20.6 47.6 27.7 66 75.2 66 128.4 0 60.3-28.4 112.1-86.6 135.5l64.6 125.6c14.9 28.4 32 55.4 48.2 83L2964.2-122.4zM2732.2-520.5c-9.9 0-20.6 0.7-30.5 1.4 0 39.1-1.4 78.8-1.4 117.8 3.5 0.7 6.4 0.7 10 0.7 44 0 84.4-14.2 84.4-64.6C2794.6-504.8 2769.1-520.5 2732.2-520.5"/><path class="st0" d="M3227.5-108.2c-158.3 0-232.8-100.1-232.8-254.1 0-154.7 64.6-268.2 236.3-268.2 163.2 0 235.6 100.7 235.6 255.4v10.7C3466.6-204.7 3390-108.2 3227.5-108.2M3306.9-425.4c-5-45.4-19.9-98.6-75.9-98.6 -78.8 0-80.2 108.5-80.2 165.3 0 54.6 8.5 141.9 80.9 141.9 73.8 0 78.7-102.2 78.7-154.7C3310.5-389.2 3309.1-407.6 3306.9-425.4"/><path class="st0" d="M3869.7-514.8l-4.3 3.5c-35.5-2.1-71.7-2.9-107.2-2.9 -0.7 27.7-1.4 56.1-1.4 83.7v119.2c0 62.5 1.4 124.9 3.5 187.3l-4.2 5c-49.7 0-98.6 0-148.3 2.1l-4.3-4.3c2.1-51.8 2.8-103.6 2.8-155.4 0-78.8 1.5-157.5 1.5-236.3 -37.7 0.7-75.3 1.4-112.9 2.9l-3.5-3.6c2.1-34.1 3.5-68.8 4.3-102.9l4.9-3.6h152.6 65.3c51.1 0 102.2-0.7 153.3-2.1l4.2 2.8C3872.5-584.3 3871.1-549.6 3869.7-514.8"/><path class="st0" d="M4584.9-118.8c-33.4 0-66 0.7-99.4 2.1l-5.7-2.8c-68.1-98.7-140.5-194.4-212.2-290.3 3.6 95.8 6.4 190.9 10 286.7l-3.6 4.3c-39.7 0-79.5 0-119.2 2.1l-4.3-3.5c0.8-41.8 2.2-83 2.2-124.9 0-78-1.4-155.4-2.9-233.4 -0.7-45.4-0.7-91.5-4.3-136.9l4.3-4.3c41.9 0 83 0 124.9-2.1l4.3 2.1c36.2 52.6 73.8 103.7 111.4 154.7 26.3 36.2 51.8 73.1 78.1 110v-86.6c0-58.2-1.4-116.4-3.6-174.6l2.9-3.6c38.3 0 77.3-0.7 115.7-2.1l4.2 2.8c0 93-0.7 186.7-0.7 279.6v66c0 50.4 0.7 100.1 2.2 150.5L4584.9-118.8z"/><path class="st1" d="M3994-1021.6c0 0 40.9 192.8 64.2 359.1 15.7 112.7-10 312.3-25.7 400 -28.4 159.9-24.7 235.7-25.1 310.5 0 0-103.9-223.4-43.6-559.5C4022.3-837 3994-1021.6 3994-1021.6"/></svg>