<svg xmlns="http://www.w3.org/2000/svg" version="1.1" x="0px" y="0px" viewBox="-123.7 373.8 55.7 55.8" xml:space="preserve"><style type="text/css">
	.st0{fill:#010202;}
</style><path class="st0" d="M-102.9 415.6c5 0 9.5-1.7 13.1-4.6l17.8 17.9c0.9 0.9 2.4 0.9 3.3 0 0.9-0.9 0.9-2.4 0-3.3l-17.8-17.9c2.8-3.6 4.6-8.1 4.6-13 0-11.5-9.4-20.9-20.9-20.9s-20.9 9.4-20.9 20.9C-123.8 406.2-114.4 415.6-102.9 415.6zM-102.9 378.4c9 0 16.3 7.3 16.3 16.3s-7.3 16.3-16.3 16.3 -16.3-7.3-16.3-16.3C-119.1 385.7-111.8 378.4-102.9 378.4z"/></svg>