<svg xmlns="http://www.w3.org/2000/svg" version="1.1" x="0px" y="0px" viewBox="-116.3 375.5 40.8 40.8" xml:space="preserve"><style type="text/css">
	.st0{fill:#010202;}
</style><path class="st0" d="M-93.5 395.9l17.5-17.5c0.7-0.7 0.7-1.7 0-2.4 -0.7-0.7-1.7-0.7-2.4 0l-17.5 17.5 -17.5-17.5c-0.7-0.7-1.7-0.7-2.4 0 -0.7 0.7-0.7 1.7 0 2.4l17.5 17.5 -17.5 17.5c-0.7 0.7-0.7 1.7 0 2.4 0.3 0.3 0.8 0.5 1.2 0.5 0.4 0 0.9-0.2 1.2-0.5l17.5-17.5 17.5 17.5c0.3 0.3 0.8 0.5 1.2 0.5 0.4 0 0.9-0.2 1.2-0.5 0.7-0.7 0.7-1.7 0-2.4L-93.5 395.9z"/></svg>